# xmcd CD database file
#
# Track frame offsets:
#	150
#	14070
#	27119
#	46837
#	60174
#	78130
#	87482
#	100741
#	112629
#	122352
#	137079
#	151001
#	160281
#	174074
#	185778
#	202505
#	219503
#	234102
#	253785
#	271924
#	282885
#	297856
#	315529
#	326110
#	343342
#
# Disc length: 4757 seconds
#
# Revision: 0
# Processed by: cddbd v1.5.2PL0 Copyright (c) Steve Scherf et al.
# Submitted via: CDex 1.70beta2
#
DISCID=45129319
DTITLE=Various Artist - Tros Country Top 100
DYEAR=2009
DGENRE=Country
TTITLE0=Dolly Parton - I Will Always Love You
TTITLE1=Hank Williams - Jambalaya (On The Bayou)
TTITLE2=The Mavericks - Dance The Night Away
TTITLE3=Tammy Wynette - D.I.V.O.R.C.E.
TTITLE4=Billy Swan - I Can Help
TTITLE5=Elvis Presley - Don't Be Cruel (To A Heart That's True)
TTITLE6=Charlie Rich - Behind Closed Doors
TTITLE7=Lynn Anderson - You're My Man
TTITLE8=Waylon Jennings - Theme From The Dukes Of Hazzard (Good Ol' Boys)
TTITLE9=Don Williams - Back In My Younger Days
TTITLE10=Barbara Fairchild - Teddy Bear Song
TTITLE11=Charley Pride - Kiss An Angel Good Mornin
TTITLE12=Lefty Frizzell - Saginaw,Michigan
TTITLE13=Moe Bandy and Joe Stampley - Roll On Big Mama
TTITLE14=Gretchen Wilson - Redneck Woman
TTITLE15=Ricky Skaggs - Cajun Moon
TTITLE16=Roseanne Cash - Seven Year Ache
TTITLE17=Marty Robbins - El Paso
TTITLE18=Lonestar - Amazed
TTITLE19=Tanya Tucker - Would You Lay With Me (In A Field Of Stone)
TTITLE20=Diamond Rio - Meet In The Middle
TTITLE21=Montgomery Gentry - Roll With Me
TTITLE22=The Statler Brothers - Flowers On The Wall
TTITLE23=K.T. Oslin - Come Next Monday
TTITLE24=Jimmy Dean - Big Bad John
EXTD=YEAR: 2009
EXTT0=
EXTT1=
EXTT2=
EXTT3=
EXTT4=
EXTT5=
EXTT6=
EXTT7=
EXTT8=
EXTT9=
EXTT10=
EXTT11=
EXTT12=
EXTT13=
EXTT14=
EXTT15=
EXTT16=
EXTT17=
EXTT18=
EXTT19=
EXTT20=
EXTT21=
EXTT22=
EXTT23=
EXTT24=
PLAYORDER=
